<svg width="541" height="305" viewBox="0 0 541 305" fill="none" xmlns="http://www.w3.org/2000/svg">
<g filter="url(#filter0_d_61_8)">
<path d="M270.5 297V2.69855e-06L130.899 155.581L4.04279 297H270.5Z" fill="url(#paint0_linear_61_8)"/>
<path d="M537 297L270.5 2.69855e-06V297H537Z" fill="url(#paint1_linear_61_8)"/>
<path d="M410.101 155.581L270.5 2.69855e-06V297L410.101 155.581Z" fill="url(#paint2_linear_61_8)"/>
<path d="M270.5 297L130.899 155.581L4 297H270.5Z" fill="url(#paint3_linear_61_8)"/>
<path style="mix-blend-mode:lighten" d="M397.399 297L270.5 155.581L143.644 297H397.399Z" fill="url(#paint4_linear_61_8)"/>
</g>
<defs>
<filter id="filter0_d_61_8" x="0" y="0" width="541" height="305" filterUnits="userSpaceOnUse" color-interpolation-filters="sRGB">
<feFlood flood-opacity="0" result="BackgroundImageFix"/>
<feColorMatrix in="SourceAlpha" type="matrix" values="0 0 0 0 0 0 0 0 0 0 0 0 0 0 0 0 0 0 127 0" result="hardAlpha"/>
<feOffset dy="4"/>
<feGaussianBlur stdDeviation="2"/>
<feComposite in2="hardAlpha" operator="out"/>
<feColorMatrix type="matrix" values="0 0 0 0 0 0 0 0 0 0 0 0 0 0 0 0 0 0 0.25 0"/>
<feBlend mode="normal" in2="BackgroundImageFix" result="effect1_dropShadow_61_8"/>
<feBlend mode="normal" in="SourceGraphic" in2="effect1_dropShadow_61_8" result="shape"/>
</filter>
<linearGradient id="paint0_linear_61_8" x1="137.272" y1="-2.76113" x2="137.272" y2="313.02" gradientUnits="userSpaceOnUse">
<stop stop-color="#555555"/>
<stop offset="0.99" stop-color="white"/>
</linearGradient>
<linearGradient id="paint1_linear_61_8" x1="403.729" y1="-2.76113" x2="403.729" y2="313.02" gradientUnits="userSpaceOnUse">
<stop stop-color="#D6D6D6"/>
<stop offset="0.99" stop-color="#3E3E3E"/>
</linearGradient>
<linearGradient id="paint2_linear_61_8" x1="271.477" y1="148.5" x2="415.922" y2="148.5" gradientUnits="userSpaceOnUse">
<stop stop-color="white"/>
<stop offset="0.99" stop-color="#ABABAB"/>
</linearGradient>
<linearGradient id="paint3_linear_61_8" x1="33.5686" y1="226.277" x2="267.271" y2="226.277" gradientUnits="userSpaceOnUse">
<stop stop-color="#6F6F6F"/>
<stop offset="0.99" stop-color="#393939"/>
</linearGradient>
<linearGradient id="paint4_linear_61_8" x1="270.5" y1="154.268" x2="270.5" y2="304.627" gradientUnits="userSpaceOnUse">
<stop stop-color="#DEDEDE"/>
<stop offset="0.99" stop-color="#4A4A4A"/>
</linearGradient>
</defs>
</svg>
